<svg width="29" height="25" viewBox="0 0 29 25" fill="none" xmlns="http://www.w3.org/2000/svg">
<path fill-rule="evenodd" clip-rule="evenodd" d="M24.5388 0C26.9304 0 28.8692 1.93878 28.8692 4.33038V15.8781C28.8692 18.2697 26.9304 20.2085 24.5388 20.2085H13.9535C13.6411 20.2085 13.3372 20.3097 13.0874 20.4971L8.08338 24.2501C7.1318 24.9638 5.77384 24.2849 5.77384 23.0954V20.2085H4.33038C1.93878 20.2085 0 18.2697 0 15.8781V4.33038C0 1.93878 1.93878 0 4.33038 0H24.5388ZM24.5388 2.88691H4.33039C3.53319 2.88691 2.88693 3.53317 2.88693 4.33037V15.8781C2.88693 16.6753 3.53319 17.3215 4.33039 17.3215H7.21731C8.01451 17.3215 8.66077 17.9678 8.66077 18.765V20.2084L11.3552 18.1876C12.1048 17.6254 13.0165 17.3215 13.9535 17.3215H24.5388C25.336 17.3215 25.9823 16.6753 25.9823 15.8781V4.33037C25.9823 3.53317 25.336 2.88691 24.5388 2.88691ZM8.66077 8.66074C9.45797 8.66074 10.1042 9.307 10.1042 10.1042C10.1042 10.9014 9.45797 11.5477 8.66077 11.5477C7.86357 11.5477 7.21731 10.9014 7.21731 10.1042C7.21731 9.307 7.86357 8.66074 8.66077 8.66074ZM14.4346 8.66074C15.2318 8.66074 15.8781 9.307 15.8781 10.1042C15.8781 10.9014 15.2318 11.5477 14.4346 11.5477C13.6374 11.5477 12.9911 10.9014 12.9911 10.1042C12.9911 9.307 13.6374 8.66074 14.4346 8.66074ZM20.2085 8.66074C21.0057 8.66074 21.6519 9.307 21.6519 10.1042C21.6519 10.9014 21.0057 11.5477 20.2085 11.5477C19.4113 11.5477 18.765 10.9014 18.765 10.1042C18.765 9.307 19.4113 8.66074 20.2085 8.66074Z" fill="white"/>
</svg>
