<svg width="26" height="27" viewBox="0 0 26 27" fill="none" xmlns="http://www.w3.org/2000/svg">
<path fill-rule="evenodd" clip-rule="evenodd" d="M13 5.50345L23.3967 16.1663L23.3973 22.484C23.3973 24.9214 21.7268 26.9079 19.6371 26.9969L19.4906 27H16.884C16.1975 27 15.6351 26.3859 15.5854 25.607L15.5818 25.4947V22.0109C15.5818 20.4043 14.4872 19.0926 13.1115 19.0146L12.9818 19.0109C11.5851 19.0109 10.4481 20.2739 10.3805 21.8612L10.3773 22.0109V25.4947C10.3773 26.2882 9.84612 26.9384 9.17231 26.9959L9.07513 27H6.46848C4.35993 27 2.64154 25.069 2.56452 22.6533L2.56165 22.484V16.209L13 5.50345ZM12.1201 0.374428C12.5828 -0.0954423 13.2617 -0.123082 13.7498 0.29151L13.839 0.374428L25.559 12.4171C26.0977 12.9662 26.1501 13.9158 25.6762 14.5396C25.2724 15.069 24.6183 15.1922 24.0997 14.8807L13.8637 4.3823L13.7742 4.2984C13.3152 3.90512 12.6847 3.90513 12.2257 4.29843L12.1363 4.38234L2.01927 14.7594C1.48286 15.1693 0.757663 15.066 0.324631 14.4972C-0.111666 13.9241 -0.104753 13.071 0.324669 12.5081L0.400148 12.4171L12.1201 0.374428Z" fill="white"/>
</svg>
