<svg width="29" height="26" viewBox="0 0 29 26" fill="none" xmlns="http://www.w3.org/2000/svg">
<path fill-rule="evenodd" clip-rule="evenodd" d="M10.6688 17.7736C12.7752 17.7736 14.5551 19.5542 14.5551 21.6614C14.5551 23.7686 12.7752 25.5492 10.6688 25.5492C8.5625 25.5492 6.78261 23.7686 6.78261 21.6614C6.78261 19.5542 8.5625 17.7736 10.6688 17.7736ZM21.2171 17.7736C23.3234 17.7736 25.1033 19.5542 25.1033 21.6614C25.1033 23.7686 23.3234 25.5492 21.2171 25.5492C19.1108 25.5492 17.3309 23.7686 17.3309 21.6614C17.3309 19.5542 19.1108 17.7736 21.2171 17.7736ZM10.6688 19.9952C9.78166 19.9952 9.0033 20.7739 9.0033 21.6614C9.0033 22.549 9.78166 23.3276 10.6688 23.3276C11.556 23.3276 12.3344 22.549 12.3344 21.6614C12.3344 20.7739 11.5554 19.9952 10.6688 19.9952ZM21.2171 19.9952C20.3299 19.9952 19.5516 20.7739 19.5516 21.6614C19.5516 22.549 20.3299 23.3276 21.2171 23.3276C22.1043 23.3276 22.8826 22.549 22.8826 21.6614C22.8826 20.7739 22.1037 19.9952 21.2171 19.9952ZM3.0257 0C4.13383 0 5.07985 0.828666 5.22697 1.92782C5.22863 1.94024 5.23007 1.95264 5.23131 1.96502L5.37541 3.04661L27.6622 1.09582C28.2075 1.0459 28.6922 1.40053 28.83 1.90969C28.862 2.02667 28.8753 2.15056 28.8666 2.27748L28.8643 2.30707L28.8608 2.33882L27.5172 13.2519L27.5139 13.2814C27.3868 14.315 26.5413 15.1315 25.5042 15.2231L25.4902 15.2242L8.20534 16.7372C8.19324 16.7387 8.18107 16.74 8.16885 16.7411L8.12429 16.7443L7.46877 16.8016C7.43657 16.8044 7.40326 16.806 7.37106 16.806C7.08087 16.806 6.81273 16.6929 6.6128 16.5054C5.54383 16.0672 4.73932 15.0849 4.57631 13.8607C4.57487 13.85 4.5736 13.8392 4.57248 13.8285L3.31682 4.41044C3.31525 4.39988 3.31383 4.38926 3.31255 4.3786L3.02515 2.22218H1.11035C0.497437 2.22218 0 1.72454 0 1.11137C0 0.4982 0.497437 0.000555406 1.11035 0.000555406L2.99177 0.000509224C3.00304 0.000170547 3.01435 0 3.0257 0ZM26.1988 3.71847L5.95428 5.49047L7.03205 13.577L7.03253 13.5813L7.03522 13.5996C7.12066 14.1529 7.61989 14.5428 8.16889 14.5126L25.0517 13.0348L26.1988 3.71847Z" fill="white"/>
</svg>
