<svg width="29" height="28" viewBox="0 0 29 28" fill="none" xmlns="http://www.w3.org/2000/svg">
<path fill-rule="evenodd" clip-rule="evenodd" d="M20.2123 0.00376943C18.0903 -0.0601468 16.0244 0.690806 14.4388 2.10242C12.8532 0.690806 10.7874 -0.0601468 8.6654 0.00376943C6.15388 -0.00481359 3.77059 1.11215 2.17027 3.04782C0.79475 4.71634 -0.645725 7.7373 0.308337 12.662C1.83253 20.5226 13.2495 26.9744 13.7316 27.24C14.1685 27.4836 14.7005 27.4836 15.1374 27.24C15.6238 26.9701 27.0408 20.5183 28.5607 12.662C29.5148 7.7373 28.0757 4.72356 26.7002 3.04782C25.1017 1.11378 22.7214 -0.00306029 20.2123 0.00376943ZM25.4552 12.1656C24.4069 17.5788 16.7903 22.6148 14.4432 24.0528C12.0961 22.6148 4.47948 17.5802 3.43119 12.1656C2.70934 8.44241 3.69713 6.27969 4.65396 5.12023C5.67946 3.88289 7.20491 3.16946 8.81196 3.17561C10.5348 3.0464 12.1989 3.83119 13.1951 5.24265C13.4394 5.69409 13.9102 5.97666 14.4235 5.97997H14.4404C14.9502 5.97645 15.4193 5.70059 15.6702 5.25672C16.6653 3.83406 18.3378 3.04276 20.0688 3.17561C21.6778 3.16778 23.2057 3.88136 24.2324 5.12023C25.1865 6.27969 26.1742 8.44241 25.4524 12.1656H25.4552Z" fill="white"/>
</svg>
